<svg width="26" height="26" viewBox="0 0 26 26" fill="none" xmlns="http://www.w3.org/2000/svg">
<path d="M2.16406 9.53359C2.16406 7.71356 2.16406 6.80354 2.51829 6.10838C2.82988 5.4969 3.32706 4.99975 3.9386 4.68819C4.6338 4.33398 5.54389 4.33398 7.36406 4.33398H18.6307C20.4509 4.33398 21.3609 4.33398 22.0562 4.68819C22.6678 4.99975 23.1649 5.4969 23.4765 6.10838C23.8307 6.80354 23.8307 7.71356 23.8307 9.53359V16.4664C23.8307 18.2865 23.8307 19.1964 23.4765 19.8916C23.1649 20.5031 22.6678 21.0002 22.0562 21.3118C21.3609 21.666 20.4509 21.666 18.6307 21.666H7.36406C5.54389 21.666 4.6338 21.666 3.9386 21.3118C3.32706 21.0002 2.82988 20.5031 2.51829 19.8916C2.16406 19.1964 2.16406 18.2865 2.16406 16.4664V9.53359Z" fill="#99D17B" fill-opacity="0.46"/>
<path fill-rule="evenodd" clip-rule="evenodd" d="M19.8199 24.5968C20.2429 25.0198 20.9289 25.0198 21.3519 24.5968L23.5186 22.4303C23.9416 22.0073 23.9416 21.3213 23.5186 20.8983C23.0956 20.4753 22.4096 20.4753 21.9866 20.8983L21.6692 21.2156V17.3313C21.6692 16.733 21.1842 16.248 20.5859 16.248C19.9876 16.248 19.5026 16.733 19.5026 17.3313V21.2156L19.1853 20.8983C18.7622 20.4753 18.0763 20.4753 17.6532 20.8983C17.2302 21.3213 17.2302 22.0073 17.6532 22.4303L19.8199 24.5968Z" fill="#A5CB91"/>
<path d="M6.49219 16.2512C6.49219 15.6529 6.97722 15.168 7.57552 15.168H11.9089C12.5072 15.168 12.9922 15.6529 12.9922 16.2512C12.9922 16.8495 12.5072 17.3345 11.9089 17.3345H7.57552C6.97722 17.3345 6.49219 16.8495 6.49219 16.2512Z" fill="#A5CB91"/>
<path d="M2.16406 8.66797H23.8307V10.8345H2.16406V8.66797Z" fill="#A5CB91"/>
</svg>
