<svg width="26" height="26" viewBox="0 0 26 26" fill="none" xmlns="http://www.w3.org/2000/svg">
<path d="M2.17188 9.53359C2.17188 7.71356 2.17188 6.80354 2.5261 6.10838C2.83769 5.4969 3.33488 4.99975 3.94641 4.68819C4.64162 4.33398 5.5517 4.33398 7.37188 4.33398H18.6385C20.4588 4.33398 21.3688 4.33398 22.064 4.68819C22.6756 4.99975 23.1727 5.4969 23.4843 6.10838C23.8385 6.80354 23.8385 7.71356 23.8385 9.53359V16.4664C23.8385 18.2865 23.8385 19.1964 23.4843 19.8916C23.1727 20.5031 22.6756 21.0002 22.064 21.3118C21.3688 21.666 20.4588 21.666 18.6385 21.666H7.37188C5.5517 21.666 4.64162 21.666 3.94641 21.3118C3.33488 21.0002 2.83769 20.5031 2.5261 19.8916C2.17188 19.1964 2.17188 18.2865 2.17188 16.4664V9.53359Z" fill="#C6DEF9"/>
<path fill-rule="evenodd" clip-rule="evenodd" d="M19.8199 16.5653C20.2429 16.1423 20.9289 16.1423 21.3519 16.5653L23.5186 18.7318C23.9416 19.1548 23.9416 19.8407 23.5186 20.2637C23.0956 20.6868 22.4096 20.6868 21.9866 20.2637L21.6692 19.9465V23.8308C21.6692 24.4291 21.1842 24.914 20.5859 24.914C19.9876 24.914 19.5026 24.4291 19.5026 23.8308V19.9465L19.1853 20.2637C18.7622 20.6868 18.0763 20.6868 17.6532 20.2637C17.2302 19.8407 17.2302 19.1548 17.6532 18.7318L19.8199 16.5653Z" fill="#76B3EE"/>
<path d="M6.5 16.2512C6.5 15.6529 6.98503 15.168 7.58333 15.168H11.9167C12.515 15.168 13 15.6529 13 16.2512C13 16.8495 12.515 17.3345 11.9167 17.3345H7.58333C6.98503 17.3345 6.5 16.8495 6.5 16.2512Z" fill="#76B3EE"/>
<path d="M2.17188 8.66797H23.8385V10.8345H2.17188V8.66797Z" fill="#76B3EE"/>
</svg>
