<svg width="24" height="25" viewBox="0 0 24 25" fill="none" xmlns="http://www.w3.org/2000/svg">
<path d="M2 9.44453C2 7.76437 2 6.92429 2.32698 6.28256C2.6146 5.71807 3.07354 5.25913 3.63803 4.97151C4.27976 4.64453 5.11984 4.64453 6.8 4.64453H17.2C18.8802 4.64453 19.7202 4.64453 20.362 4.97151C20.9265 5.25913 21.3854 5.71807 21.673 6.28256C22 6.92429 22 7.76437 22 9.44453V15.8445C22 17.5247 22 18.3647 21.673 19.0065C21.3854 19.571 20.9265 20.0299 20.362 20.3175C19.7202 20.6445 18.8802 20.6445 17.2 20.6445H6.8C5.11984 20.6445 4.27976 20.6445 3.63803 20.3175C3.07354 20.0299 2.6146 19.571 2.32698 19.0065C2 18.3647 2 17.5247 2 15.8445V9.44453Z" fill="#F46197" fill-opacity="0.15"/>
<path fill-rule="evenodd" clip-rule="evenodd" d="M17 9.64453H22V15.6445H17C15.3431 15.6445 14 14.3014 14 12.6445C14 10.9876 15.3431 9.64453 17 9.64453ZM17 13.6445C17.5523 13.6445 18 13.1968 18 12.6445C18 12.0922 17.5523 11.6445 17 11.6445C16.4477 11.6445 16 12.0922 16 12.6445C16 13.1968 16.4477 13.6445 17 13.6445Z" fill="#F46197" fill-opacity="0.6"/>
</svg>
